<?xml version="1.0" standalone="no"?>
<!DOCTYPE svg PUBLIC "-//W3C//DTD SVG 20010904//EN"
 "http://www.w3.org/TR/2001/REC-SVG-20010904/DTD/svg10.dtd">
<svg version="1.0" xmlns="http://www.w3.org/2000/svg"
 width="48.000000pt" height="48.000000pt" viewBox="0 0 48.000000 48.000000"
 preserveAspectRatio="xMidYMid meet">
<metadata>
Created by potrace 1.16, written by Peter Selinger 2001-2019
</metadata>
<g transform="translate(0.000000,48.000000) scale(0.100000,-0.100000)"
fill="#000000" stroke="none">
<path d="M185 295 c-32 -31 -32 -65 1 -95 21 -20 27 -22 34 -10 7 11 32 14
116 12 l106 -1 -7 47 c-4 26 -8 47 -8 47 -1 1 -14 6 -28 12 -22 9 -27 8 -40
-11 -8 -11 -17 -29 -21 -38 -11 -28 -35 -21 -47 12 -9 27 -42 50 -72 50 -5 0
-21 -11 -34 -25z"/>
</g>
</svg>
